# xmcd
# 
# Track frame offsets:
#     150
#     24599
#     46844
#     79973
#     110674
#     149116
#     191968
#     214941
#     251417
#     270190
#     300876
# 
# Disc length: 4427
# 
# Revision: 0
# Processed by: cddbd v1.5.2PL0 Copyright (c) Steve Scherf et al.
# Submitted via: fre:ac v1.0.17
# 
DISCID=9a11490b
DTITLE=Various Artist - Real Blues
DYEAR=0
DGENRE=Blues
TTITLE0=Muddy Waters - Mannish Boy
TTITLE1=SRV - The Things I Used To Do
TTITLE2=SRV - The Sky is Crying
TTITLE3=SRV - Little Wing
TTITLE4=Rory Gallagher - Too Much Alcohol
TTITLE5=Rory Gallagher - A Million Miles Away
TTITLE6=trower - bridge
TTITLE7=Robin Trower - Daydream
TTITLE8=ZZ Top - Just Got Back From Baby's
TTITLE9=ZZ Top - Sure Got Cold After the Rain
TTITLE10=Clapton - Meet Me Down At the River
EXTD=remix
EXTT0=
EXTT1=
EXTT2=
EXTT3=
EXTT4=
EXTT5=
EXTT6=
EXTT7=
EXTT8=
EXTT9=
EXTT10=
PLAYORDER=
